<?xml version="1.0" standalone="no"?>
<!DOCTYPE svg PUBLIC "-//W3C//DTD SVG 20010904//EN"
 "http://www.w3.org/TR/2001/REC-SVG-20010904/DTD/svg10.dtd">
<svg version="1.0" xmlns="http://www.w3.org/2000/svg"
 width="1100.000000pt" height="1100.000000pt" viewBox="0 0 1100.000000 1100.000000"
 preserveAspectRatio="xMidYMid meet">
<metadata>
Created by potrace 1.11, written by Peter Selinger 2001-2013
</metadata>
<g transform="translate(0.000000,1100.000000) scale(0.100000,-0.100000)"
fill="#000000" stroke="none">
<path d="M5417 10674 c-1 -1 -49 -4 -107 -8 -58 -3 -116 -8 -130 -10 -14 -3
-47 -7 -75 -11 -44 -5 -121 -17 -181 -29 -493 -96 -1004 -347 -1394 -684 -610
-527 -988 -1275 -1055 -2087 -5 -60 -5 -396 0 -430 2 -16 6 -55 10 -85 10
-103 42 -267 74 -390 65 -247 222 -616 379 -890 106 -185 177 -299 364 -585
281 -430 451 -813 544 -1223 31 -139 24 -102 68 -392 39 -259 57 -344 86 -400
24 -47 79 -93 127 -108 56 -17 884 -17 878 0 -3 7 -14 60 -25 118 -29 156 -62
307 -106 480 -2 8 -8 35 -14 60 -67 279 -263 858 -375 1105 -7 17 -32 72 -55
124 -49 112 -185 385 -229 459 -17 29 -31 55 -31 57 0 4 -81 143 -124 210 -99
158 -306 454 -351 501 -5 6 -26 30 -45 54 -112 140 -235 271 -380 403 -23 21
-55 66 -71 100 -25 53 -29 74 -29 142 0 171 70 307 215 421 65 51 168 103 217
110 138 19 259 -109 187 -200 -37 -47 -86 -30 -109 38 -6 19 -19 36 -28 38
-74 20 -244 -117 -307 -245 -39 -82 -47 -120 -38 -195 19 -171 191 -203 433
-82 157 78 245 140 350 245 76 78 90 88 150 105 93 27 136 30 194 13 94 -28
132 -93 128 -217 l-2 -59 79 7 c137 11 286 71 453 183 38 25 70 49 72 52 2 3
7 24 10 46 17 107 52 217 153 485 102 268 189 445 308 625 29 44 57 90 64 102
18 36 94 75 137 71 78 -6 95 -82 55 -249 -36 -152 -136 -428 -226 -624 -41
-89 -166 -307 -242 -420 -32 -48 -66 -99 -75 -114 -24 -36 -22 -64 8 -125 44
-87 81 -115 162 -120 64 -4 112 8 210 54 80 38 145 90 241 194 67 72 118 105
154 99 17 -3 40 -12 50 -20 37 -34 13 -131 -61 -247 -36 -56 -61 -154 -42
-166 37 -23 169 25 278 102 86 61 283 238 313 282 35 52 68 60 113 30 44 -30
46 -53 10 -122 -35 -68 -26 -87 15 -30 66 92 160 147 249 148 112 0 161 -48
216 -212 51 -155 74 -198 122 -226 77 -45 221 -13 326 75 73 60 155 168 203
269 49 101 60 114 102 118 38 4 51 -2 67 -32 16 -30 7 -70 -31 -147 -52 -104
-122 -194 -258 -330 -295 -295 -549 -623 -768 -993 -102 -171 -241 -435 -301
-572 -16 -36 -42 -94 -59 -130 -91 -200 -262 -674 -340 -945 -29 -99 -87 -319
-93 -350 -2 -11 -15 -67 -28 -125 -28 -118 -26 -107 -61 -289 -14 -74 -25
-138 -25 -143 0 -13 773 -9 812 4 45 15 96 54 119 92 22 35 55 140 64 201 6
41 21 149 31 220 3 22 7 51 9 65 2 14 9 57 15 95 11 72 18 110 51 255 54 236
145 484 269 730 92 185 159 298 330 560 276 423 416 674 543 970 69 164 143
393 171 530 3 14 7 35 10 47 2 11 8 43 12 70 5 26 9 50 9 53 1 3 5 37 9 75 5
39 10 84 12 100 5 41 5 352 0 395 -3 19 -7 67 -10 105 -4 39 -8 81 -10 95 -3
14 -10 59 -16 100 -18 115 -76 345 -119 471 -135 400 -363 791 -631 1083 -113
124 -302 303 -364 345 -12 8 -23 17 -26 21 -9 10 -83 65 -154 115 -198 137
-442 264 -666 348 -189 71 -461 140 -636 162 -27 4 -59 8 -72 10 -71 12 -454
28 -465 19z m958 -2904 c19 -16 33 -61 26 -85 -21 -72 -110 -118 -175 -91 -97
41 -69 145 47 179 55 15 81 15 102 -3z"/>
<path d="M5719 8408 c-7 -13 -21 -39 -32 -58 -73 -128 -200 -409 -237 -520 -5
-14 -29 -81 -54 -150 -25 -68 -43 -126 -42 -128 4 -4 96 154 96 164 0 4 6 15
13 23 29 34 209 460 236 556 6 22 17 61 25 88 16 51 14 61 -5 25z"/>
<path d="M4359 7266 c-37 -18 -36 -50 4 -80 19 -14 36 -26 39 -26 9 0 19 70
13 90 -8 25 -27 31 -56 16z"/>
<path d="M6998 7217 c-46 -28 -64 -47 -156 -172 -45 -60 -85 -114 -89 -120 -5
-5 -26 -36 -48 -68 -64 -95 -121 -121 -166 -76 -26 26 -24 56 14 202 8 31 13
57 11 57 -3 0 -39 -26 -82 -58 -164 -125 -261 -166 -389 -167 -67 0 -86 4
-110 21 -55 41 -81 120 -62 188 12 40 6 42 -33 13 -42 -32 -138 -80 -203 -102
-69 -23 -198 -28 -260 -9 -101 30 -156 81 -213 195 l-38 77 -40 -25 c-107 -66
-252 -129 -349 -151 -86 -20 -107 -23 -200 -27 l-90 -4 -38 -48 c-79 -99 -172
-141 -291 -131 -91 8 -156 78 -159 174 l-2 43 -25 -17 c-138 -90 -344 -176
-439 -181 -7 -1 10 -25 37 -53 226 -236 545 -689 743 -1054 50 -93 177 -347
209 -419 12 -27 32 -73 45 -100 12 -28 39 -91 59 -140 20 -50 41 -99 46 -110
63 -138 287 -837 314 -978 4 -19 13 -61 42 -182 4 -16 8 -34 9 -40 6 -24 65
-313 69 -340 3 -16 8 -42 12 -57 l6 -28 429 0 c335 0 430 3 433 13 2 6 18 89
35 182 229 1226 735 2356 1416 3160 84 99 82 91 17 92 -113 0 -198 44 -252
129 -15 25 -50 108 -76 185 -26 76 -50 140 -53 140 -32 7 -55 3 -83 -14z"/>
<path d="M4182 7158 c-38 -77 -52 -152 -33 -186 17 -32 64 -43 98 -24 44 25
56 34 81 64 l24 26 -38 18 c-42 20 -102 76 -113 106 -7 18 -7 18 -19 -4z"/>
<path d="M4401 3139 c-67 -31 -120 -108 -156 -224 -43 -137 -11 -284 87 -407
55 -68 55 -68 450 -69 l353 -1 -120 -23 c-66 -13 -131 -26 -145 -28 -14 -3
-101 -19 -195 -37 -93 -17 -181 -34 -195 -36 -182 -31 -255 -86 -254 -189 1
-79 41 -142 107 -169 84 -35 90 -34 457 87 190 63 527 174 750 247 656 214
1010 330 1096 360 89 30 136 65 166 124 66 130 24 281 -100 353 l-47 28 -1109
0 c-1005 0 -1113 -1 -1145 -16z"/>
<path d="M6510 2409 c-90 -27 -905 -287 -1245 -396 -60 -19 -150 -48 -200 -63
-626 -196 -717 -228 -756 -266 -85 -83 -109 -227 -57 -334 15 -31 42 -70 60
-88 55 -58 80 -65 213 -67 l119 -1 171 -266 170 -267 536 0 537 -1 93 143 c51
78 126 194 167 257 41 63 79 119 83 124 5 5 71 10 148 12 120 1 146 5 184 23
109 53 132 197 45 278 -56 53 -71 55 -492 55 l-390 0 39 19 c33 16 298 137
485 221 310 140 317 143 349 189 95 131 76 307 -43 395 -69 52 -127 61 -216
33z"/>
</g>
</svg>
